<?xml version="1.0" encoding="UTF-8" standalone="no"?>
<svg
   width="396"
   height="124.7706856965583"
   viewBox="0 0 350 110.27712119645304"
   class="css-1j8o68f"
   version="1.1"
   id="svg9"
   sodipodi:docname="SWD_Logo_Looka.svg"
   inkscape:version="1.2.2 (b0a84865, 2022-12-01)"
   xmlns:inkscape="http://www.inkscape.org/namespaces/inkscape"
   xmlns:sodipodi="http://sodipodi.sourceforge.net/DTD/sodipodi-0.dtd"
   xmlns="http://www.w3.org/2000/svg"
   xmlns:svg="http://www.w3.org/2000/svg">
  <sodipodi:namedview
     id="namedview11"
     pagecolor="#ffffff"
     bordercolor="#000000"
     borderopacity="0.25"
     inkscape:showpageshadow="2"
     inkscape:pageopacity="0.0"
     inkscape:pagecheckerboard="0"
     inkscape:deskcolor="#d1d1d1"
     showgrid="false"
     inkscape:zoom="1.89147"
     inkscape:cx="198.52285"
     inkscape:cy="62.385342"
     inkscape:window-width="1920"
     inkscape:window-height="1080"
     inkscape:window-x="1440"
     inkscape:window-y="0"
     inkscape:window-maximized="0"
     inkscape:current-layer="svg9" />
  <defs
     id="SvgjsDefs1252" />
  <g
     id="SvgjsG1253"
     featurekey="nameFeature-0"
     transform="matrix(1.824431,0,0,1.8121498,2.8472163,-15.302309)"
     fill="#07689f">
    <path
       d="m 11.16,24.08 c 0,-1.76 0.24,-3.6 1.04,-5.2 1.64,-3.52 4.76,-5.12 8.52,-5.12 1.56,0.08 3.12,1.08 3.12,2.76 0,2.16 -1.72,4.08 -3.28,5.28 l -0.48,-0.64 c 0,-0.04 0,-0.04 0.04,-0.08 0.04,-0.04 0.32,-0.28 0.36,-0.32 1.08,-1.08 2.12,-2.4 2.12,-4.04 0,-1.6 -1.4,-1.8 -2.68,-1.8 -2.08,0.24 -3.16,2.72 -3.56,4.48 -0.16,0.84 -0.2,1.64 -0.2,2.48 0,0.72 0,1.24 0.08,1.96 l 0.72,5.6 0.12,1.68 c 0,2.24 -0.28,4.2 -1.36,6.2 -2.08,3.96 -6.32,6.4 -10.8,6.4 -3.44,0 -5.2,-2 -5.2,-5.32 0,-0.84 0.12,-1.68 0.32,-2.48 0.04,-0.4 0.28,-1.16 0.76,-1.16 0.24,0 0.4,0.16 0.48,0.4 v 0.2 c 0,0.56 -0.2,1.12 -0.28,1.68 -0.08,0.48 -0.08,0.92 -0.08,1.4 0,2.64 1.4,4.12 4,4.12 4.96,0 6.84,-6.24 6.84,-10.24 0,-0.48 0,-0.96 -0.04,-1.44 L 11.2,25.64 c 0,-0.08 -0.04,-1 -0.04,-1.32 z m 10.16,6.44 3.28,-5.6 2.08,-3.2 c 0,0 0.64,0.16 0.92,0.24 0.68,0.2 1.84,0.6 1.84,1.48 0,0.12 0.04,0.4 -0.08,0.44 l -0.48,0.72 -2.6,4.32 -1.88,3.56 c -0.04,0.08 -0.32,0.76 -0.44,0.96 -0.12,0.32 -0.24,0.68 -0.24,1.04 0,0.04 0,0.12 0.04,0.12 0.32,0 0.84,-0.48 1.04,-0.68 0.12,-0.12 0.64,-0.6 0.72,-0.68 0.2,-0.2 0.8,-0.88 0.88,-0.96 l 3.4,-4.12 4.08,-5.44 h 0.04 c 0.88,0 2.76,0.8 2.76,1.76 0,0.16 0,0.32 -0.12,0.4 l -3.68,6.88 -1.12,2.44 c -0.28,0.72 -0.44,1.36 -0.44,2.08 0.76,0 1.56,-0.52 2.16,-0.96 0.16,-0.08 0.64,-0.44 0.68,-0.52 0.84,-0.64 1.72,-1.44 2.4,-2.24 0.2,-0.2 1,-1.08 1.12,-1.2 L 40,28.56 42.52,25.2 c 0.08,-0.12 0.24,-0.36 0.4,-0.36 0.12,0 0.24,0.04 0.4,0.08 0.12,0.12 0.24,0.28 0.24,0.48 v 0.08 l -2.84,3.84 -2.68,3.2 -1.92,2 -1.28,1.12 c -1.24,1.08 -3.28,2.32 -5.04,2.32 -1.56,0 -2.16,-1.2 -2.16,-2.6 0,-1.24 0.56,-2.44 1.08,-3.56 l -2.92,2.92 c -0.04,0.04 -0.68,0.6 -0.92,0.76 -0.76,0.64 -1.76,1.44 -2.84,1.44 -1.4,0 -2.24,-0.84 -2.24,-2.24 0,-0.96 0.4,-1.88 0.8,-2.72 0.16,-0.36 0.68,-1.36 0.72,-1.44 z m 7.4,1.28 v -0.04 z m 11.72,-5.52 c 0,-3.16 2.08,-6.48 5.56,-6.48 0.52,0 1,0.24 1.28,0.68 0.04,0.12 0.4,0.68 0.44,0.84 0,0 -0.08,0 -0.12,-0.04 -0.44,-0.2 -0.84,-0.48 -1.32,-0.48 -1.64,0 -2.64,2.56 -2.64,3.92 0,0.52 0.08,1 0.24,1.48 l 0.76,2.64 0.12,0.8 c 0.04,0 0.12,-0.08 0.16,-0.08 l 1.84,-0.88 c 1.8,-0.92 3.36,-2.12 4.6,-3.68 0.08,-0.08 0.24,-0.08 0.32,-0.08 0.32,0 0.56,0.2 0.56,0.52 v 0.12 C 51.36,27.08 48.52,29 47,29.68 l -2.16,1.04 -0.04,0.08 c -0.04,0.76 -0.16,1.48 -0.44,2.2 -1.24,3.12 -4.8,5.16 -8.08,5.16 -0.88,-0.12 -1.56,-0.6 -1.72,-1.48 0,-2.04 1.72,-3.12 3.32,-4 0.2,-0.12 0.88,-0.48 1,-0.52 l 2,-0.88 c 0.04,0 0.04,-0.08 0.04,-0.08 v -0.4 c 0,-0.16 0,-0.44 -0.04,-0.64 l -0.32,-2.4 C 40.48,27.28 40.44,26.8 40.44,26.28 Z m -3,7.8 c -0.68,0.36 -1.32,1.24 -1.32,2.04 0,0.44 0.32,0.6 0.72,0.6 1.48,0 2.6,-1.76 3.24,-2.88 0,-0.08 0.2,-0.44 0.28,-0.56 0.08,-0.16 0.28,-0.56 0.28,-0.8 -0.04,0 -0.96,0.44 -1.36,0.64 -0.28,0.12 -1.56,0.8 -1.84,0.96 z M 46.76,32 c 0,-0.72 0.2,-1.36 0.4,-2.04 1.32,-3.88 6.28,-7.36 10.44,-7.36 1.24,0 2.56,0.48 2.56,1.92 0,1 -0.56,1.96 -1.12,2.76 l -0.92,1.6 -1.48,2.96 c 2.8,0 6.36,-3.76 7.92,-5.8 0.24,-0.28 0.52,-0.64 0.6,-1.04 0.4,0 0.84,0 0.84,0.52 v 0.08 0.04 c -0.04,0 -0.28,0.36 -0.36,0.48 -1.96,2.72 -5.2,6.08 -8.56,6.68 0,0.12 0.08,0.4 0.08,0.52 0.04,0.32 0.04,0.68 0.04,1.04 0,1.36 -0.04,2.76 -0.28,4.12 L 56,43 c -0.16,0.96 -1.2,3.92 -2.32,4.04 -2.6,0 -3.92,-1.28 -3.92,-3.92 0,-0.8 0.12,-1.64 0.32,-2.4 l 0.8,-2.6 1.12,-3.2 1.52,-3.64 -0.52,0.48 -1.4,1.08 c -0.04,0.04 -0.52,0.36 -0.68,0.44 -0.6,0.4 -1.4,0.84 -2.16,0.84 -1.32,0 -2,-0.92 -2,-2.12 z m 2.88,0.08 c 0,0.24 0.12,0.32 0.36,0.32 0.48,0 1.04,-0.4 1.44,-0.68 0.12,-0.08 0.52,-0.4 0.6,-0.44 0.24,-0.2 1,-0.8 1.08,-0.88 l 1.56,-1.44 1,-1.88 1.24,-1.96 v -0.04 c -2.4,0 -7.28,4.6 -7.28,7 z m 6.08,1.92 -0.8,2.08 -1.24,4 c -0.4,1.16 -0.76,3.32 -0.76,4.52 0,0.4 0,1.48 0.68,1.48 0.08,0 0.2,-0.24 0.24,-0.28 1.4,-2.44 2.2,-7.04 2.2,-9.92 0,-0.64 0,-1.36 -0.32,-1.96 z m 7.2,-3.48 3.28,-5.6 2.08,-3.2 c 0,0 0.64,0.16 0.92,0.24 0.68,0.2 1.84,0.6 1.84,1.48 0,0.12 0.04,0.4 -0.08,0.44 l -0.48,0.72 -2.6,4.32 -1.88,3.56 c -0.04,0.08 -0.32,0.76 -0.44,0.96 -0.12,0.32 -0.24,0.68 -0.24,1.04 0,0.04 0,0.12 0.04,0.12 0.32,0 0.84,-0.48 1.04,-0.68 0.12,-0.12 0.64,-0.6 0.72,-0.68 0.2,-0.2 0.8,-0.88 0.88,-0.96 l 3.4,-4.12 4.08,-5.44 h 0.04 c 0.88,0 2.76,0.8 2.76,1.76 0,0.16 0,0.32 -0.12,0.4 l -3.68,6.88 -1.12,2.44 c -0.28,0.72 -0.44,1.36 -0.44,2.08 0.76,0 1.56,-0.52 2.16,-0.96 0.16,-0.08 0.64,-0.44 0.68,-0.52 0.84,-0.64 1.72,-1.44 2.4,-2.24 0.2,-0.2 1,-1.08 1.12,-1.2 l 2.32,-2.8 2.52,-3.36 c 0.08,-0.12 0.24,-0.36 0.4,-0.36 0.12,0 0.24,0.04 0.4,0.08 0.12,0.12 0.24,0.28 0.24,0.48 v 0.08 l -2.84,3.84 -2.68,3.2 -1.92,2 -1.28,1.12 c -1.24,1.08 -3.28,2.32 -5.04,2.32 -1.56,0 -2.16,-1.2 -2.16,-2.6 0,-1.24 0.56,-2.44 1.08,-3.56 l -2.92,2.92 c -0.04,0.04 -0.68,0.6 -0.92,0.76 -0.76,0.64 -1.76,1.44 -2.84,1.44 -1.4,0 -2.24,-0.84 -2.24,-2.24 0,-0.96 0.4,-1.88 0.8,-2.72 0.16,-0.36 0.68,-1.36 0.72,-1.44 z m 7.4,1.28 v -0.04 z m 10.8,-0.64 c 0,-4.48 4.48,-9.6 9.08,-9.6 1.16,0 2.4,0.48 2.4,1.84 0,2.8 -4.28,4.44 -6.76,4.72 -0.2,0.72 -0.36,1.48 -0.36,2.28 0,1.12 0.36,2.6 1.76,2.6 1.2,0 2.44,-0.92 3.32,-1.64 0.16,-0.16 0.76,-0.68 0.8,-0.72 L 92.88,29.12 95,26.84 97.4,23.8 c 0.04,-0.04 0.12,-0.12 0.2,-0.16 0.24,0 0.72,0.08 0.72,0.44 l -0.12,0.36 -1.56,2.04 -2.28,2.68 -2.08,2.12 c -0.08,0.12 -0.76,0.68 -0.96,0.88 -1.68,1.4 -3.68,2.72 -5.96,2.72 -2.56,0 -4.24,-1.08 -4.24,-3.72 z m 4.56,-4.4 v 0.04 c 0.16,-0.04 0.88,-0.2 1.04,-0.24 0.16,-0.08 0.8,-0.24 0.92,-0.28 0.16,-0.08 0.76,-0.32 0.92,-0.36 0.84,-0.36 2.44,-1.28 2.44,-2.4 0,-0.4 -0.24,-0.68 -0.68,-0.68 -1.68,0 -3.64,1.4 -4.32,2.88 -0.12,0.32 -0.32,0.72 -0.32,1.04 z M 98.56,20 l 1.2,-2.44 1,-1.76 c 0.04,-0.12 0.6,-1 0.8,-1.24 1.64,-2.4 4.6,-5.6 7.84,-5.6 1.4,0 2.36,0.92 2.36,2.32 0,2.88 -2.44,5.76 -4.4,7.72 l -3.56,3.24 -3.08,2.48 c 0,0.04 -0.04,0.04 -0.04,0.08 -0.28,0.88 -0.56,1.92 -0.76,2.84 -0.04,0.16 -0.2,0.96 -0.24,1.12 0,0.08 -0.04,0.4 -0.08,0.6 l 1.16,-1.88 c 1,-1.6 2.84,-4 5,-4 2.08,0 2.92,2.92 3.12,4.52 l 0.32,2.72 c 0.04,0.4 0.12,0.76 0.24,1.12 0.04,0.16 0.12,0.52 0.32,0.52 0.36,0 0.8,-0.4 1,-0.56 0.08,-0.08 0.36,-0.32 0.4,-0.36 l 1.08,-1.04 2.12,-2.6 2.92,-3.92 c 0.08,-0.08 0.2,-0.24 0.32,-0.24 0.28,0 0.64,0.12 0.64,0.52 0,0.28 -0.32,0.68 -0.48,0.88 -0.08,0.16 -0.48,0.68 -0.52,0.72 l -3.72,4.68 -1.8,2 c -0.08,0.08 -0.68,0.72 -0.88,0.88 -0.96,0.88 -2.24,2 -3.6,2 -2,0 -2.44,-2.24 -2.44,-3.8 V 29.2 c 0,-0.36 -0.08,-2.84 -0.56,-2.84 -0.32,0 -0.84,0.72 -1,0.96 l -2.16,3.28 -1.04,1.4 c -0.08,0.08 -0.52,0.64 -0.64,0.8 -0.8,0.88 -1.88,2 -3.2,2 h -0.16 c -0.68,-0.56 -0.84,-2.12 -0.84,-2.88 0,-0.84 0.12,-1.68 0.24,-2.48 0.04,-0.16 0.16,-0.84 0.2,-0.96 l 0.56,-1.96 1.16,-3.48 z m 3.24,1.48 v 0.04 l 3.68,-2.8 1.56,-1.36 1.08,-1.12 c 0.08,-0.04 0.56,-0.6 0.76,-0.84 0.8,-1 1.76,-2.52 1.76,-3.88 0,-0.28 -0.08,-0.56 -0.4,-0.56 -0.52,0 -1.04,0.44 -1.44,0.72 -1.68,1.36 -3.12,2.96 -4.32,4.76 -0.24,0.32 -0.88,1.36 -0.96,1.48 l -0.92,1.76 c -0.04,0.04 -0.4,0.84 -0.52,1.12 -0.08,0.2 -0.28,0.68 -0.28,0.68 z m -0.04,0.08 c 0.04,0 0.04,-0.04 0,-0.04 z m 25.08,1.28 c 0.24,-0.44 0.56,-1.28 1.2,-1.28 0.28,0 0.52,0.16 0.8,0.32 0.48,0.32 1.4,0.76 1.4,1.52 0,0.28 -0.16,0.52 -0.28,0.72 l -1.44,3.04 -1.48,3.68 -0.56,1.72 -0.4,1.44 c -0.08,0.4 -0.16,0.92 -0.16,1.4 0,0.08 0,0.32 0.12,0.32 0.36,0 0.76,-0.44 0.96,-0.64 l 0.56,-0.56 c 0.16,-0.2 0.72,-0.8 0.8,-0.88 l 2.32,-2.8 5.16,-6.96 c 0.08,-0.08 0.16,-0.24 0.32,-0.24 0.32,0 0.64,0.16 0.64,0.56 v 0.08 l -1.12,1.64 -4.88,6.52 -1.88,2.16 c -0.08,0.04 -0.88,0.88 -1.16,1.16 -0.52,0.52 -1.76,1.64 -2.56,1.64 -1.92,0 -2.48,-1.68 -2.48,-3.32 0,-1.48 0.4,-2.92 0.92,-4.32 -0.04,0 -0.08,0.04 -0.08,0.04 -0.12,0.08 -0.52,0.44 -0.6,0.52 l -1.76,1.52 c -0.12,0.08 -0.92,0.68 -1.16,0.84 -0.76,0.56 -1.76,1.2 -2.76,1.2 -1.4,0 -2.08,-1.12 -2.08,-2.4 0,-1.04 0.36,-2.04 0.8,-2.96 1.44,-3.12 4.84,-6.8 8.6,-6.8 0.72,0 1.32,0.24 1.84,0.72 0.08,0.04 0.36,0.4 0.4,0.4 z m -8.6,8.84 c 0,0.24 0.2,0.32 0.4,0.32 0.4,0 0.8,-0.28 1.12,-0.48 0.16,-0.12 0.72,-0.48 0.76,-0.52 l 1.52,-1.2 2.48,-2.36 0.92,-1.96 c 0.16,-0.32 0.28,-0.72 0.28,-1.08 0,-0.28 -0.12,-0.4 -0.4,-0.4 -0.48,0 -1.04,0.28 -1.48,0.52 -2.2,1.2 -4.36,3.56 -5.28,5.92 -0.16,0.36 -0.32,0.84 -0.32,1.24 z m 5.4,-1.92 v -0.04 z m 13.08,-7.52 V 22.2 c 0.32,0 0.56,-0.12 0.84,-0.12 1.24,0 1.68,1.16 1.68,2.24 0,0.08 0.04,0.28 -0.04,0.4 l -1.96,3.8 v 0.04 l 2.16,-2.08 1.88,-1.6 c 0.12,-0.08 1.04,-0.76 1.32,-0.96 1.2,-0.84 2.76,-1.76 4.28,-1.76 0.84,0 1.32,0.48 1.32,1.28 0,0.76 -0.28,1.6 -0.6,2.28 l -2.24,4.6 -0.52,1.36 c -0.16,0.44 -0.36,1.08 -0.36,1.6 0,0.16 0,0.32 0.2,0.32 0.68,0 1.4,-0.56 1.88,-0.96 0.52,-0.32 2.48,-2.08 2.8,-2.56 l 1.92,-2.12 2.84,-3.52 0.2,-0.2 c 0.04,-0.04 0.16,-0.04 0.2,-0.04 0.2,0 0.44,0.12 0.56,0.28 0.08,0.16 0.24,0.52 0.24,0.52 v 0.04 l -0.36,-0.04 -2.64,3.36 -2.96,3.32 -1.48,1.44 c -0.08,0.08 -0.8,0.68 -1.04,0.84 -0.96,0.76 -2.08,1.44 -3.36,1.44 -1.72,0 -2.84,-1.28 -2.84,-2.96 0,-0.76 0.24,-1.56 0.56,-2.24 l 1.24,-2.96 c 0.12,-0.28 0.16,-0.48 0.16,-0.76 -0.16,0 -0.4,0.16 -0.56,0.28 -0.08,0.04 -0.36,0.28 -0.4,0.28 -0.08,0.08 -0.4,0.32 -0.48,0.4 -0.28,0.2 -1,0.84 -1.08,0.88 l -2.52,2.44 -3.36,3.64 c -0.4,0.44 -0.84,0.84 -1.44,0.84 -1.2,0 -2.12,-0.88 -2.12,-2.04 0,-1.4 0.96,-3.2 1.76,-4.4 l 3.84,-5.92 z m 0.48,6.36 c 0.04,0 0.04,-0.04 0,-0.04 z m 17.56,-6.36 V 22.2 c 0.32,0 0.56,-0.12 0.84,-0.12 1.24,0 1.68,1.16 1.68,2.24 0,0.08 0.04,0.28 -0.04,0.4 l -1.96,3.8 v 0.04 l 2.16,-2.08 1.88,-1.6 c 0.12,-0.08 1.04,-0.76 1.32,-0.96 1.2,-0.84 2.76,-1.76 4.28,-1.76 0.84,0 1.32,0.48 1.32,1.28 0,0.76 -0.28,1.6 -0.6,2.28 l -2.24,4.6 -0.52,1.36 c -0.16,0.44 -0.36,1.08 -0.36,1.6 0,0.16 0,0.32 0.2,0.32 0.68,0 1.4,-0.56 1.88,-0.96 0.52,-0.32 2.48,-2.08 2.8,-2.56 l 1.92,-2.12 2.84,-3.52 0.2,-0.2 c 0.04,-0.04 0.16,-0.04 0.2,-0.04 0.2,0 0.44,0.12 0.56,0.28 0.08,0.16 0.24,0.52 0.24,0.52 v 0.04 L 173,25 l -2.64,3.36 -2.96,3.32 -1.48,1.44 c -0.08,0.08 -0.8,0.68 -1.04,0.84 -0.96,0.76 -2.08,1.44 -3.36,1.44 -1.72,0 -2.84,-1.28 -2.84,-2.96 0,-0.76 0.24,-1.56 0.56,-2.24 l 1.24,-2.96 c 0.12,-0.28 0.16,-0.48 0.16,-0.76 -0.16,0 -0.4,0.16 -0.56,0.28 -0.08,0.04 -0.36,0.28 -0.4,0.28 -0.08,0.08 -0.4,0.32 -0.48,0.4 -0.28,0.2 -1,0.84 -1.08,0.88 l -2.52,2.44 -3.36,3.64 c -0.4,0.44 -0.84,0.84 -1.44,0.84 -1.2,0 -2.12,-0.88 -2.12,-2.04 0,-1.4 0.96,-3.2 1.76,-4.4 l 3.84,-5.92 z m 0.48,6.36 c 0.04,0 0.04,-0.04 0,-0.04 z m 25.08,-5.76 c 0.24,-0.44 0.56,-1.28 1.2,-1.28 0.28,0 0.52,0.16 0.8,0.32 0.48,0.32 1.4,0.76 1.4,1.52 0,0.28 -0.16,0.52 -0.28,0.72 l -1.44,3.04 -1.48,3.68 -0.56,1.72 -0.4,1.44 c -0.08,0.4 -0.16,0.92 -0.16,1.4 0,0.08 0,0.32 0.12,0.32 0.36,0 0.76,-0.44 0.96,-0.64 l 0.56,-0.56 c 0.16,-0.2 0.72,-0.8 0.8,-0.88 l 2.32,-2.8 5.16,-6.96 c 0.08,-0.08 0.16,-0.24 0.32,-0.24 0.32,0 0.64,0.16 0.64,0.56 v 0.08 l -1.12,1.64 -4.88,6.52 -1.88,2.16 c -0.08,0.04 -0.88,0.88 -1.16,1.16 -0.52,0.52 -1.76,1.64 -2.56,1.64 -1.92,0 -2.48,-1.68 -2.48,-3.32 0,-1.48 0.4,-2.92 0.92,-4.32 -0.04,0 -0.08,0.04 -0.08,0.04 -0.12,0.08 -0.52,0.44 -0.6,0.52 l -1.76,1.52 c -0.12,0.08 -0.92,0.68 -1.16,0.84 -0.76,0.56 -1.76,1.2 -2.76,1.2 -1.4,0 -2.08,-1.12 -2.08,-2.4 0,-1.04 0.36,-2.04 0.8,-2.96 1.44,-3.12 4.84,-6.8 8.6,-6.8 0.72,0 1.32,0.24 1.84,0.72 0.08,0.04 0.36,0.4 0.4,0.4 z m -8.6,8.84 c 0,0.24 0.2,0.32 0.4,0.32 0.4,0 0.8,-0.28 1.12,-0.48 0.16,-0.12 0.72,-0.48 0.76,-0.52 l 1.52,-1.2 2.48,-2.36 0.92,-1.96 c 0.16,-0.32 0.28,-0.72 0.28,-1.08 0,-0.28 -0.12,-0.4 -0.4,-0.4 -0.48,0 -1.04,0.28 -1.48,0.52 -2.2,1.2 -4.36,3.56 -5.28,5.92 -0.16,0.36 -0.32,0.84 -0.32,1.24 z m 5.4,-1.92 v -0.04 z"
       fill="#07689f"
       id="path3" />
  </g>
  <g
     id="SvgjsG1254"
     featurekey="sloganFeature-0"
     transform="matrix(1.3836526,0,0,1.3836526,53.947965,68.883282)"
     fill="#07689f">
    <path
       d="m 22.2,6 c 0.26,0 0.32,0.58 0.06,0.62 -0.82,0.12 -1.42,0.42 -2.12,2.18 l -3.02,7.78 c -0.62,1.58 -0.96,2.62 -0.96,3.42 0,0.12 -1.4,0.44 -1.46,0.3 l -3.14,-8.08 -1.8,4.36 C 9.12,18.16 8.82,19.24 8.82,20 c 0,0.12 -1.42,0.44 -1.48,0.3 L 2.84,8.82 C 2.16,7.04 1.54,6.76 0.76,6.64 0.5,6.6 0.56,6 0.82,6 H 5.7 C 5.96,6 6.02,6.6 5.76,6.64 4.94,6.82 4.34,7.12 4.98,8.8 l 3.3,8.6 2.12,-5.12 C 10.84,11.22 10.9,10.56 10.32,9.06 9.62,7.24 9.1,6.76 8.58,6.64 8.34,6.58 8.38,6 8.64,6 h 3.56 c 0.2,0 0.24,0.06 0.24,0.14 0,0.24 -0.8,0.82 -0.08,2.66 l 3.26,8.52 3.3,-8.52 C 19.58,7.08 18.96,6.82 17.92,6.64 17.7,6.6 17.76,6 17.98,6 Z m 4.894,14.04 c -0.2,0.02 -0.28,-0.6 -0.12,-0.64 1.18,-0.3 2.08,-0.48 2.08,-1.96 V 8.48 c 0,-1.34 -0.82,-1.68 -1.7,-1.9 -0.16,-0.04 -0.08,-0.64 0.12,-0.62 1.46,0.12 3.6,0.12 5.08,0.12 1.82,0 3.18,-0.08 4.76,-0.12 0.46,0 0.46,0.32 0.36,0.76 l -0.5,1.9 c -0.06,0.26 -0.54,0.26 -0.62,0 -0.28,-0.94 -0.92,-1.6 -3.46,-1.6 -1.5,0 -1.96,0.36 -1.96,1.46 v 3.32 c 0,0.52 0.26,0.62 0.66,0.62 h 0.38 c 1.78,0 3.12,-0.12 4,-0.96 0.18,-0.18 0.6,-0.14 0.44,0.24 l -1.18,2.52 c -0.14,0.34 -0.42,0.3 -0.64,0 -0.48,-0.62 -1.52,-0.86 -2.78,-0.86 h -0.22 c -0.4,0 -0.66,0.1 -0.66,0.62 v 3.46 c 0,1.16 0.52,1.54 2.24,1.54 3.24,0 4.28,-1.3 4.78,-2.14 0.16,-0.26 0.64,-0.2 0.64,0.18 0,1.1 -0.84,3 -2.06,3.02 -0.96,-0.06 -2.24,-0.12 -3.96,-0.12 -1.84,0 -3.84,-0.06 -5.68,0.12 z m 25.054,-7.66 c 1.82,0 3.6,1.36 3.6,3.6 0,2.44 -2.14,4.06 -5.56,4.06 -0.98,0 -2.18,-0.12 -3.52,-0.12 -1.1,0 -2.06,0.02 -3,0.12 -0.2,0.02 -0.28,-0.6 -0.12,-0.64 1.18,-0.3 2.08,-0.48 2.08,-1.96 V 8.48 c 0,-1.34 -0.82,-1.68 -1.7,-1.9 -0.16,-0.04 -0.06,-0.64 0.1,-0.62 0.84,0.1 1.74,0.12 2.34,0.12 1.4,0 2.6,-0.12 3.48,-0.12 2.64,0 4.78,1.1 4.8,3.3 0,1.68 -1.24,2.76 -2.5,3.02 z m -2.86,-5.46 c -1.2,0 -1.58,0.38 -1.58,1.56 v 3.6 h 2.14 c 1.58,0 2.66,-0.66 2.66,-2.36 0,-2.06 -1.54,-2.8 -3.22,-2.8 z m 0.94,12.16 c 2.04,0 3.28,-0.62 3.28,-2.72 0,-2.48 -1.72,-3.36 -3.66,-3.36 h -2.14 v 4.44 c 0,1.12 0.6,1.64 2.52,1.64 z m 17.968,0.96 c -0.2,0.02 -0.28,-0.6 -0.12,-0.64 1.18,-0.3 2.08,-0.48 2.08,-1.96 V 8.48 c 0,-1.34 -0.82,-1.68 -1.7,-1.9 -0.16,-0.04 -0.08,-0.64 0.12,-0.62 0.82,0.1 1.66,0.12 2.34,0.12 1.4,0 2.8,-0.12 3.84,-0.12 4.94,0 7.46,2.86 7.46,6.76 0,3.9 -2.6,7.32 -7.48,7.32 -0.96,0 -2.2,-0.12 -3.54,-0.12 -1.08,0 -2.06,0.02 -3,0.12 z m 6.6,-0.98 c 3.46,0 5.34,-1.86 5.34,-5.38 0,-3.7 -2.12,-6.74 -5.92,-6.74 -1.54,0 -1.98,0.46 -1.98,1.54 v 8.96 c 0,1.1 0.6,1.62 2.56,1.62 z m 12.494,0.98 c -0.2,0.02 -0.28,-0.6 -0.12,-0.64 1.18,-0.3 2.08,-0.48 2.08,-1.96 V 8.48 c 0,-1.34 -0.82,-1.68 -1.7,-1.9 -0.16,-0.04 -0.08,-0.64 0.12,-0.62 1.46,0.12 3.6,0.12 5.08,0.12 1.82,0 3.18,-0.08 4.76,-0.12 0.46,0 0.46,0.32 0.36,0.76 l -0.5,1.9 c -0.06,0.26 -0.54,0.26 -0.62,0 -0.28,-0.94 -0.92,-1.6 -3.46,-1.6 -1.5,0 -1.96,0.36 -1.96,1.46 v 3.32 c 0,0.52 0.26,0.62 0.66,0.62 h 0.38 c 1.78,0 3.12,-0.12 4,-0.96 0.18,-0.18 0.6,-0.14 0.44,0.24 l -1.18,2.52 c -0.14,0.34 -0.42,0.3 -0.64,0 -0.48,-0.62 -1.52,-0.86 -2.78,-0.86 h -0.22 c -0.4,0 -0.66,0.1 -0.66,0.62 v 3.46 c 0,1.16 0.52,1.54 2.24,1.54 3.24,0 4.28,-1.3 4.78,-2.14 0.16,-0.26 0.64,-0.2 0.64,0.18 0,1.1 -0.84,3 -2.06,3.02 -0.96,-0.06 -2.24,-0.12 -3.96,-0.12 -1.84,0 -3.84,-0.06 -5.68,0.12 z m 20.934,0.28 c -1.66,0 -4.06,-0.76 -3.84,-1.6 l 0.18,-0.7 c 0.54,-1.94 1.14,0.98 4.44,0.98 1.74,0 2.72,-0.84 2.72,-2.1 0,-1.04 -0.76,-1.5 -2.04,-2.26 l -2.24,-1.36 c -2.04,-1.24 -2.84,-2.12 -2.84,-3.5 0,-2.38 2.28,-4.1 4.82,-4.1 1.54,0 3.42,0.64 3.22,1.32 l -0.24,0.74 c -0.56,1.8 -1.08,-0.76 -3.82,-0.76 -1.54,0 -2.32,0.8 -2.32,1.88 0,0.88 0.54,1.4 1.88,2.22 l 2.34,1.4 c 2.04,1.22 2.86,2.14 2.86,3.52 0,2.44 -2.44,4.32 -5.12,4.32 z M 118.718,20 c -0.16,0 -0.28,-0.6 -0.12,-0.62 0.98,-0.14 1.68,-0.5 1.68,-1.8 V 8.42 c 0,-1.3 -0.7,-1.66 -1.68,-1.8 C 118.438,6.6 118.558,6 118.718,6 h 5.18 c 0.16,0 0.28,0.6 0.12,0.62 -0.86,0.12 -1.66,0.4 -1.66,1.8 v 9.16 c 0,1.4 0.8,1.68 1.66,1.8 0.16,0.02 0.04,0.62 -0.12,0.62 z m 19.314,0.32 c -4.8,0 -8.66,-2.3 -8.66,-7.02 0,-3.88 2.66,-7.62 8.14,-7.62 2.4,0 4.26,0.7 4.04,1.34 l -0.26,0.78 c -0.62,1.8 -1.58,-0.64 -5.14,-0.64 -3.12,0 -4.76,1.88 -4.76,5.04 0,4.7 3.34,6.94 6.06,6.94 1.42,0 2.14,-0.7 2.14,-1.94 v -0.38 c 0,-1.52 -0.62,-2.02 -2.24,-2.26 -0.26,-0.04 -0.08,-0.72 0.36,-0.72 h 4.9 c 0.54,0 0.28,0.66 0.06,0.72 -0.68,0.18 -1.16,0.62 -1.16,1.9 v 0.72 c 0,0.54 0.02,0.92 0.4,1.58 -1.2,0.64 -3.38,1.56 -3.88,1.56 z m 23.254,-0.12 c -0.32,0 -0.48,-0.16 -0.7,-0.38 l -9.6,-10.36 v 8.08 c 0,1.34 0.78,1.58 1.82,1.84 0.16,0.04 0.08,0.62 -0.12,0.62 h -4.48 c -0.18,0 -0.28,-0.56 -0.12,-0.62 0.94,-0.26 1.66,-0.5 1.66,-1.84 V 9.62 c 0,-1.28 -0.14,-2.12 -0.8,-2.86 -0.12,-0.16 -0.3,-0.28 -0.3,-0.36 0,-0.16 0.14,-0.4 0.36,-0.4 h 1.4 c 0.22,0 0.36,0.02 0.5,0.18 l 9.42,10.28 V 8.44 c 0,-1.4 -0.88,-1.58 -1.82,-1.82 -0.16,-0.04 -0.08,-0.62 0.12,-0.62 h 4.48 c 0.18,0 0.28,0.58 0.12,0.62 -0.9,0.24 -1.68,0.42 -1.68,1.82 v 7.94 c 0,1.26 0.04,2.7 0.24,3.42 0.1,0.32 -0.26,0.4 -0.5,0.4 z m 11.254,0.12 c -1.66,0 -4.06,-0.76 -3.84,-1.6 l 0.18,-0.7 c 0.54,-1.94 1.14,0.98 4.44,0.98 1.74,0 2.72,-0.84 2.72,-2.1 0,-1.04 -0.76,-1.5 -2.04,-2.26 l -2.24,-1.36 c -2.04,-1.24 -2.84,-2.12 -2.84,-3.5 0,-2.38 2.28,-4.1 4.82,-4.1 1.54,0 3.42,0.64 3.22,1.32 l -0.24,0.74 c -0.56,1.8 -1.08,-0.76 -3.82,-0.76 -1.54,0 -2.32,0.8 -2.32,1.88 0,0.88 0.54,1.4 1.88,2.22 l 2.34,1.4 c 2.04,1.22 2.86,2.14 2.86,3.52 0,2.44 -2.44,4.32 -5.12,4.32 z"
       fill="#07689f"
       id="path6" />
  </g>
</svg>
